<?xml version="1.0" encoding="UTF-8" standalone="no"?>
<!-- Created with Inkscape (http://www.inkscape.org/) -->

<svg
   width="512"
   height="512"
   viewBox="0 0 512 512"
   version="1.1"
   id="svg1"
   sodipodi:docname="icon.svg"
   inkscape:version="1.4.4 (dcaf3e7d9e, 2026-05-05)"
   inkscape:export-filename="icon.png"
   inkscape:export-xdpi="96"
   inkscape:export-ydpi="96"
   xmlns:inkscape="http://www.inkscape.org/namespaces/inkscape"
   xmlns:sodipodi="http://sodipodi.sourceforge.net/DTD/sodipodi-0.dtd"
   xmlns:xlink="http://www.w3.org/1999/xlink"
   xmlns="http://www.w3.org/2000/svg"
   xmlns:svg="http://www.w3.org/2000/svg">
  <sodipodi:namedview
     id="namedview1"
     pagecolor="#140e30"
     bordercolor="#000000"
     borderopacity="0"
     inkscape:showpageshadow="2"
     inkscape:pageopacity="0.0"
     inkscape:pagecheckerboard="0"
     inkscape:deskcolor="#d1d1d1"
     inkscape:document-units="px"
     inkscape:zoom="0.83636633"
     inkscape:cx="205.05369"
     inkscape:cy="334.78153"
     inkscape:window-width="1578"
     inkscape:window-height="1072"
     inkscape:window-x="0"
     inkscape:window-y="0"
     inkscape:window-maximized="1"
     inkscape:current-layer="layer1" />
  <defs
     id="defs1">
    <linearGradient
       id="linearGradient1"
       inkscape:collect="always">
      <stop
         style="stop-color:#5b4feb;stop-opacity:0;"
         offset="0"
         id="stop1" />
      <stop
         style="stop-color:#5b4feb;stop-opacity:1;"
         offset="0.25"
         id="stop5" />
      <stop
         style="stop-color:#7c73ef;stop-opacity:1;"
         offset="0.5"
         id="stop3" />
      <stop
         style="stop-color:#5b4feb;stop-opacity:1;"
         offset="0.75"
         id="stop4" />
      <stop
         style="stop-color:#5b4feb;stop-opacity:0;"
         offset="1"
         id="stop2" />
    </linearGradient>
    <linearGradient
       inkscape:collect="always"
       xlink:href="#linearGradient1"
       id="linearGradient2"
       x1="3.899"
       y1="255.33111"
       x2="505.739"
       y2="255.33111"
       gradientUnits="userSpaceOnUse"
       gradientTransform="matrix(0.97660389,0,0,1.0013605,7.1427723,0.32048193)" />
  </defs>
  <rect
     style="fill:#140e30;stroke-width:10;stroke-linecap:round"
     id="rect1"
     width="512"
     height="512"
     x="0"
     y="0"
     inkscape:label="background" />
  <g
     inkscape:label="Layer 1"
     inkscape:groupmode="layer"
     id="layer1">
    <path
       id="path4"
       d="m 15.83357,315.54296 0.755892,-0.42658 0.754915,-0.41457 0.754915,-0.40254 0.755891,-0.39053 0.754915,-0.37852 0.754915,-0.36549 0.755891,-0.35248 0.754915,-0.33946 0.754915,-0.32545 0.755891,-0.31142 0.754915,-0.2964 0.754915,-0.28239 0.755891,-0.26836 0.754915,-0.25234 0.754915,-0.23632 0.755891,-0.2213 0.754915,-0.20528 0.754915,-0.18826 0.755891,-0.17223 0.754915,-0.15622 0.754915,-0.13818 0.755891,-0.12117 0.754915,-0.10414 0.754915,-0.0871 0.755892,-0.0691 0.754914,-0.0501 0.754915,-0.033 0.755892,-0.015 0.754914,0.004 0.754915,0.022 0.755892,0.04 0.754914,0.0601 0.754915,0.0781 0.755892,0.0961 0.754914,0.11616 0.754915,0.13518 0.755892,0.15321 0.754914,0.17324 0.754915,0.19226 0.755892,0.21029 0.754914,0.23031 0.754915,0.24934 0.755892,0.26736 0.754915,0.28739 0.754914,0.30542 0.755892,0.32444 0.754915,0.34346 0.754914,0.3625 0.755892,0.38051 0.754915,0.39854 0.754914,0.41757 0.755892,0.43559 0.754915,0.45362 0.754914,0.47064 0.755892,0.48866 0.754915,0.50569 0.754914,0.52371 0.755892,0.53973 0.754915,0.55776 0.754914,0.57278 0.755892,0.5898 0.754915,0.60583 0.754914,0.62084 0.755892,0.63686 0.754915,0.65089 0.754915,0.6669 0.755891,0.67993 0.754915,0.69494 0.754915,0.70796 0.755891,0.72199 0.754915,0.73399 0.754915,0.74702 0.755891,0.75903 0.754915,0.77004 0.754915,0.78207 0.755891,0.79207 0.754915,0.80309 0.754915,0.81311 0.755891,0.82212 0.754915,0.83113 0.754915,0.84014 0.755891,0.84715 0.754915,0.85516 0.754915,0.86217 0.755891,0.86818 0.754915,0.87419 0.754915,0.88019 0.755891,0.88421 0.754915,0.8882 0.754915,0.89221 0.755891,0.89622 0.754915,0.89722 0.754915,0.90022 0.755891,0.90123 0.754915,0.90122 0.754915,0.90223 0.755891,0.90222 0.754915,0.90023 0.754915,0.89822 0.755891,0.89722 0.754915,0.89321 0.754915,0.89021 0.755891,0.8852 0.754915,0.8812 0.754915,0.87619 0.755891,0.86918 0.754915,0.86217 0.754915,0.85516 0.755891,0.84716 0.754915,0.83914 0.754915,0.82912 0.755891,0.81912 0.75491,0.80909 0.75492,0.79709 0.75589,0.78607 0.75492,0.77305 0.75491,0.76003 0.75589,0.74601 0.75492,0.73099 0.75491,0.71698 0.75589,0.70095 0.75492,0.68493 0.75491,0.66691 0.75589,0.65088 0.75492,0.63186 0.75491,0.61283 0.7559,0.59381 0.75491,0.57378 0.75492,0.55275 0.75589,0.53272 0.75491,0.5097 0.75492,0.48866 0.75589,0.46463 0.75491,0.4416 0.75492,0.41857 0.75589,0.39354 0.75491,0.36749 0.75492,0.34347 0.75589,0.31643 0.75491,0.2904 0.75492,0.26335 0.75589,0.23532 0.75492,0.20829 0.75491,0.17924 0.75589,0.1502 0.75492,0.12117 0.75491,0.0921 0.75589,0.0611 0.75492,0.031 h 0.75491 l 0.75589,-0.032 0.75492,-0.0631 0.75491,-0.0951 0.75589,-0.12717 0.75492,-0.15922 0.75491,-0.19326 0.7559,-0.22631 0.75491,-0.25935 0.75492,-0.2924 0.75589,-0.32744 0.75491,-0.36149 0.75492,-0.39554 0.75589,-0.43059 0.75491,-0.46463 0.75492,-0.50068 0.75589,-0.53472 0.75491,-0.56978 0.75492,-0.60582 0.75589,-0.64087 0.75491,-0.67692 0.75492,-0.71097 0.75589,-0.74801 0.75492,-0.78307 0.75491,-0.81811 0.75589,-0.85416 0.75492,-0.89021 0.75491,-0.92526 0.75589,-0.9603 0.75492,-0.99636 0.75491,-1.0314 0.75589,-1.06645 0.75492,-1.10149 0.75491,-1.13655 0.7559,-1.17059 0.75491,-1.20563 0.75491,-1.23969 0.7559,-1.27373 0.75491,-1.30778 0.75492,-1.34182 0.75589,-1.37487 0.75491,-1.40691 0.75492,-1.43996 0.75589,-1.473 0.75491,-1.50404 0.75492,-1.53709 0.75589,-1.56713 0.75491,-1.59817 0.75492,-1.62921 0.75589,-1.65826 0.75492,-1.68829 0.75491,-1.71733 0.75589,-1.74638 0.75492,-1.7734 0.75491,-1.80245 0.75589,-1.82849 0.75492,-1.85552 0.75491,-1.88156 0.75589,-1.90659 0.75492,-1.93162 0.75491,-1.95566 0.75589,-1.97869 0.75492,-2.00272 0.75491,-2.02375 0.7559,-2.04678 0.75491,-2.0668 0.75491,-2.08784 0.7559,-2.10686 0.75491,-2.12589 0.75492,-2.14391 0.75589,-2.16194 0.75491,-2.17796 0.75492,-2.19398 0.75589,-2.209 0.75491,-2.22403 0.75492,-2.23703 0.75589,-2.25006 0.75491,-2.26207 0.75492,-2.27309 0.75589,-2.28311 0.75492,-2.29311 0.75491,-2.30213 0.75589,-2.30914 0.75492,-2.31714 0.75491,-2.32216 0.75589,-2.32816 0.75492,-2.33217 0.75491,-2.33617 0.75589,-2.33818 0.75492,-2.34018 0.75491,-2.34118 0.75589,-2.34118 0.75492,-2.33918 0.75491,-2.33818 0.7559,-2.33617 0.75491,-2.33117 0.75492,-2.32716 0.75589,-2.32216 0.75491,-2.31514 0.75492,-2.30814 0.75589,-2.29912 0.75491,-2.29111 0.75492,-2.2801 0.75589,-2.27009 0.75491,-2.25806 0.75492,-2.24505 0.75589,-2.23204 0.75491,-2.21701 0.75492,-2.20099 0.75589,-2.18597 0.75492,-2.16794 0.75491,-2.14992 0.75589,-2.1319 0.75492,-2.11087 0.75491,-2.09084 0.75589,-2.06881 0.75492,-2.04778 0.75491,-2.02375 0.75589,-1.99972 0.75492,-1.97468 0.75491,-1.94865 0.75589,-1.92361 0.75492,-1.89558 0.75491,-1.86754 0.7559,-1.83849 0.75491,-1.80846 0.75492,-1.77942 0.75589,-1.74737 0.75491,-1.71633 0.75492,-1.68329 0.75589,-1.65024 0.75491,-1.6172 0.75492,-1.58115 0.75589,-1.5471 0.75491,-1.51105 0.75492,-1.47401 0.75589,-1.43695 0.75491,-1.3999 0.75492,-1.36085 0.75589,-1.3218 0.75492,-1.28274 0.75491,-1.24269 0.75589,-1.20263 0.75492,-1.16158 0.75491,-1.11952 0.75589,-1.07746 0.75492,-1.03541 0.75491,-0.99235 0.75589,-0.94929 0.75492,-0.90523 0.75491,-0.86117 0.7559,-0.81711 0.75491,-0.77205 0.75491,-0.72699 0.7559,-0.68192 0.75491,-0.63486 0.75492,-0.58981 0.75589,-0.54373 0.75491,-0.49768 0.75492,-0.44961 0.75589,-0.40355 0.75491,-0.35648 0.75492,-0.30942 0.75589,-0.26136 0.75491,-0.21529 0.75492,-0.16623 0.75589,-0.11916 0.75492,-0.0721 0.75491,-0.023 0.75589,0.023 0.75492,0.0721 0.75491,0.11916 0.75589,0.16623 0.75492,0.21429 0.75491,0.26236 0.75589,0.30942 0.75492,0.35648 0.75491,0.40255 0.75589,0.45061 0.75492,0.49667 0.75491,0.54374 0.7559,0.5898 0.75491,0.63587 0.75492,0.68192 0.75589,0.72599 0.75491,0.77205 0.75492,0.81711 0.75589,0.86117 0.75491,0.90523 0.75492,0.94929 0.75589,0.99235 0.75491,1.0354 0.75492,1.07747 0.75589,1.12052 0.75491,1.16058 0.75492,1.20263 0.75589,1.24269 0.75492,1.28274 0.75491,1.3218 0.75589,1.36185 0.75492,1.3989 0.75491,1.43695 0.75589,1.474 0.75492,1.51106 0.75491,1.5471 0.75589,1.58115 0.75492,1.61719 0.75491,1.65025 0.75589,1.68328 0.75492,1.71634 0.75491,1.74737 0.7559,1.77842 0.75491,1.80945 0.75492,1.8385 0.75589,1.86754 0.75491,1.89558 0.75492,1.92261 0.75589,1.94965 0.75491,1.97468 0.75492,1.99972 0.75589,2.02375 0.75491,2.04678 0.75492,2.06981 0.75589,2.09084 0.75491,2.11087 0.75492,2.13089 0.75589,2.15092 0.75492,2.16795 0.75491,2.18497 0.75589,2.20199 0.75492,2.21701 0.75491,2.23103 0.75589,2.24606 0.75492,2.25706 0.75491,2.27009 0.75589,2.2811 0.75492,2.29011 0.75491,2.30012 0.7559,2.30814 0.75491,2.31514 0.75491,2.32116 0.7559,2.32716 0.75491,2.33217 0.75492,2.33517 0.75589,2.33818 0.75491,2.34018 0.75492,2.34118 0.75589,2.34118 0.75491,2.33918 0.75492,2.33917 0.75589,2.33518 0.75491,2.33217 0.75492,2.32816 0.75589,2.32315 0.75492,2.31615 0.75491,2.31014 0.75589,2.30113 0.75492,2.29311 0.75491,2.28411 0.75589,2.27308 0.75492,2.26208 0.75491,2.25005 0.75589,2.23704 0.75492,2.22302 0.75491,2.21001 0.75589,2.19398 0.75492,2.17796 0.75491,2.16193 0.7559,2.14392 0.75491,2.12588 0.75492,2.10687 0.75589,2.08783 0.75491,2.06681 0.75492,2.04578 0.75589,2.02475 0.75491,2.00272 0.75492,1.97869 0.75589,1.95566 0.75491,1.93162 0.75492,1.90659 0.75589,1.88156 0.75491,1.85552 0.75492,1.82849 0.75491,1.80144 0.7559,1.77441 0.75491,1.74638 0.75491,1.71733 0.7559,1.68829 0.75491,1.65826 0.75492,1.62921 0.75589,1.59817 0.75491,1.56713 0.75492,1.53709 0.75589,1.50404 0.75491,1.473 0.75492,1.43996 0.75589,1.40791 0.75491,1.37387 0.75492,1.34182 0.75589,1.30778 0.75492,1.27373 0.75491,1.23968 0.75589,1.20564 0.75492,1.17059 0.75491,1.13655 0.75589,1.10149 0.75492,1.06645 0.75491,1.0314 0.75589,0.99636 0.75492,0.9603 0.75491,0.92526 0.75589,0.89021 0.75492,0.85416 0.75491,0.81911 0.7559,0.78307 0.75491,0.74701 0.75492,0.71197 0.75589,0.67592 0.75491,0.64187 0.75492,0.60482 0.75589,0.57078 0.75491,0.53472 0.75492,0.49968 0.75589,0.46563 0.75491,0.43059 0.75492,0.39554 0.75589,0.36149 0.75491,0.32644 0.75492,0.2934 0.75589,0.25935 0.75492,0.22631 0.75491,0.19326 0.75589,0.15922 0.75492,0.12717 0.75491,0.0951 0.75589,0.0631 0.75492,0.032 h 0.75491 l 0.75589,-0.031 0.75492,-0.0611 0.75491,-0.0921 0.75589,-0.12117 0.75492,-0.1502 0.75491,-0.17924 0.7559,-0.20729 0.75491,-0.23632 0.75492,-0.26335 0.75589,-0.2904 0.75491,-0.31643 0.75492,-0.34246 0.75589,-0.3685 0.75491,-0.39354 0.75492,-0.41757 0.75589,-0.4416 0.75491,-0.46563 0.75492,-0.48766 0.75589,-0.5107 0.75491,-0.53172 0.75492,-0.55375 0.75589,-0.57378 0.75492,-0.59381 0.75491,-0.61283 0.75589,-0.63186 0.75492,-0.64988 0.75491,-0.66791 0.75589,-0.68493 0.75492,-0.70095 0.75491,-0.71597 0.75589,-0.732 0.75492,-0.74601 0.75491,-0.76003 0.7559,-0.77305 0.75491,-0.78507 0.75491,-0.79809 0.7559,-0.80809 0.75491,-0.81912 0.75492,-0.83012 0.75589,-0.83814 0.75491,-0.84715 0.75492,-0.85517 0.75589,-0.86317 0.75491,-0.86918 0.75492,-0.87519 0.75589,-0.8812 0.75491,-0.8862 0.75492,-0.88921 0.75589,-0.89421 0.75492,-0.89622 0.75491,-0.89922 0.75589,-0.90023 0.75492,-0.90122 0.75491,-0.90223 0.75589,-0.90222 0.75492,-0.90123 0.75491,-0.89922 0.75589,-0.89822 0.75492,-0.89521 0.75491,-0.89222 0.75589,-0.8882 0.75492,-0.88521 0.75491,-0.87919 0.7559,-0.87419 0.75491,-0.86818 0.75492,-0.86217 0.75589,-0.85516 0.75491,-0.84815 0.75492,-0.83914 0.75589,-0.83113 0.75491,-0.82212 0.75492,-0.8131 0.75589,-0.8031 0.75491,-0.79307 0.75492,-0.78106 0.75589,-0.77105 0.75491,-0.75903 0.75492,-0.74702 0.75589,-0.73399 0.75492,-0.72199 0.75491,-0.70796 0.75589,-0.69394 0.75492,-0.68093 0.75491,-0.6659 0.75589,-0.65189 0.75492,-0.63686 0.75491,-0.62084 0.75589,-0.60583 0.75492,-0.5888 0.75491,-0.57378 0.75589,-0.55675 0.75492,-0.54074 0.75491,-0.52271 0.7559,-0.50669 0.75491,-0.48866 0.75492,-0.47064 0.75589,-0.45362 0.75491,-0.43559 0.75492,-0.41656 0.75589,-0.39955 0.75491,-0.38051 0.75492,-0.3615 0.75589,-0.34346 0.75491,-0.32544 0.75492,-0.30542 0.75589,-0.28739 0.75491,-0.26736 0.75492,-0.24934 0.75589,-0.23031 0.75492,-0.21029 0.75491,-0.19226 0.75589,-0.17324 0.75492,-0.15321 0.75491,-0.13518 0.75589,-0.11616 0.75492,-0.0961 0.75491,-0.0781 0.75589,-0.0601 0.75492,-0.04 0.75491,-0.022 0.7559,-0.004 0.75491,0.015 0.75491,0.033 0.7559,0.0501 0.75491,0.0691 0.75492,0.0871 0.75589,0.10414 0.75491,0.12117 0.75492,0.13818 0.75589,0.15622 0.75491,0.17223 0.75492,0.18826 0.75589,0.20528 0.75491,0.2213 0.75492,0.23632 0.75589,0.25234 0.75492,0.26736 0.75491,0.28239 0.75589,0.2974 0.75492,0.31142 0.75491,0.32545 0.75589,0.33946 0.75492,0.35248 0.75491,0.36549 0.75589,0.37852 0.75492,0.39053 0.75491,0.40254 0.75589,0.41457 0.75492,0.42558"
       stroke-width="5"
       stroke="#0000ff"
       fill="none"
       style="stroke:url(#linearGradient2);stroke-width:29.6671;stroke-linecap:round;stroke-linejoin:round;stroke-dasharray:none;stroke-opacity:1" />
  </g>
</svg>
